<svg xmlns="http://www.w3.org/2000/svg" width="106.797" height="31.644" viewBox="0 0 106.797 31.644"><defs><style>.a{fill:#fff;}.b{fill:#707070;}</style></defs><path class="a" d="M108.947,30.765a3.031,3.031,0,0,1-3.035,3.031H6.6a3.035,3.035,0,0,1-3.039-3.031V6.6A3.039,3.039,0,0,1,6.6,3.561h99.311A3.034,3.034,0,0,1,108.946,6.6V30.765Z" transform="translate(-2.857 -2.857)"/><path class="b" d="M103.055,31.644H3.743A3.743,3.743,0,0,1,0,27.909V3.74A3.746,3.746,0,0,1,3.743,0h99.311A3.747,3.747,0,0,1,106.8,3.74V27.908a3.743,3.743,0,0,1-3.742,3.736Z" transform="translate(0 0)"/><path class="b" d="M108.947,30.765a3.031,3.031,0,0,1-3.035,3.031H6.6a3.035,3.035,0,0,1-3.039-3.031V6.6A3.039,3.039,0,0,1,6.6,3.561h99.311A3.034,3.034,0,0,1,108.946,6.6V30.765Z" transform="translate(-2.857 -2.857)"/><path class="a" d="M64.917,35.611A4.587,4.587,0,0,1,67.1,31.762a4.7,4.7,0,0,0-3.7-2c-1.557-.164-3.067.931-3.86.931-.809,0-2.03-.916-3.347-.889a4.928,4.928,0,0,0-4.148,2.529c-1.794,3.1-.456,7.666,1.262,10.175.86,1.23,1.864,2.6,3.179,2.553,1.286-.052,1.767-.819,3.319-.819s1.989.819,3.33.788c1.38-.021,2.25-1.234,3.079-2.474a10.143,10.143,0,0,0,1.408-2.867,4.438,4.438,0,0,1-2.707-4.078Zm-2.533-7.5a4.514,4.514,0,0,0,1.034-3.236,4.6,4.6,0,0,0-2.975,1.538,4.3,4.3,0,0,0-1.061,3.116,3.8,3.8,0,0,0,3-1.419Z" transform="translate(-41.07 -19.955)"/><g transform="translate(33.584 14.243)"><path class="a" d="M178.7,82.7h-1.8l-.985-3.093H172.5l-.938,3.093h-1.75L173.2,72.172H175.3Zm-3.079-4.391-.89-2.75q-.141-.421-.531-1.984h-.032q-.157.672-.5,1.984l-.875,2.75Zm11.784.5a4.3,4.3,0,0,1-1.053,3.062,3.087,3.087,0,0,1-2.341,1,2.344,2.344,0,0,1-2.169-1.077v3.984h-1.688V77.6q0-1.217-.063-2.5h1.484l.094,1.2h.032a3,3,0,0,1,4.805-.3A4.2,4.2,0,0,1,187.41,78.812Zm-1.719.062a3.13,3.13,0,0,0-.5-1.829,1.729,1.729,0,0,0-1.469-.749,1.755,1.755,0,0,0-1.133.414,1.919,1.919,0,0,0-.664,1.086,2.2,2.2,0,0,0-.078.514v1.267a2.031,2.031,0,0,0,.508,1.4,1.687,1.687,0,0,0,1.32.571,1.73,1.73,0,0,0,1.484-.734A3.231,3.231,0,0,0,185.69,78.874Zm10.455-.062a4.3,4.3,0,0,1-1.053,3.062,3.089,3.089,0,0,1-2.342,1,2.344,2.344,0,0,1-2.169-1.077v3.984h-1.688V77.6q0-1.217-.063-2.5h1.484l.094,1.2h.032a3,3,0,0,1,4.806-.3A4.2,4.2,0,0,1,196.146,78.812Zm-1.72.062a3.13,3.13,0,0,0-.5-1.829,1.726,1.726,0,0,0-1.467-.749,1.762,1.762,0,0,0-1.134.414,1.918,1.918,0,0,0-.663,1.086,2.254,2.254,0,0,0-.079.514v1.267a2.038,2.038,0,0,0,.507,1.4,1.691,1.691,0,0,0,1.322.571,1.728,1.728,0,0,0,1.484-.734A3.231,3.231,0,0,0,194.426,78.874Zm11.487.874a2.813,2.813,0,0,1-.936,2.188,4.151,4.151,0,0,1-2.869.922,5.009,5.009,0,0,1-2.728-.656l.39-1.406a4.7,4.7,0,0,0,2.438.657,2.3,2.3,0,0,0,1.484-.43,1.4,1.4,0,0,0,.533-1.147,1.47,1.47,0,0,0-.439-1.079,4.065,4.065,0,0,0-1.453-.812q-2.766-1.031-2.767-3.016a2.663,2.663,0,0,1,.977-2.125,3.863,3.863,0,0,1,2.587-.829,5.113,5.113,0,0,1,2.391.5l-.423,1.375a4.182,4.182,0,0,0-2.024-.484,2.058,2.058,0,0,0-1.4.438,1.252,1.252,0,0,0-.423.954,1.29,1.29,0,0,0,.485,1.031,5.467,5.467,0,0,0,1.531.812,5.19,5.19,0,0,1,2,1.28,2.668,2.668,0,0,1,.643,1.826Zm5.594-3.373h-1.86v3.687q0,1.407.985,1.405a2.965,2.965,0,0,0,.75-.078l.047,1.281a3.824,3.824,0,0,1-1.312.187,2.023,2.023,0,0,1-1.563-.61,2.991,2.991,0,0,1-.563-2.047V76.372h-1.108V75.106h1.108v-1.39l1.657-.5v1.89h1.86Zm8.376,2.468a4.165,4.165,0,0,1-1,2.875,3.567,3.567,0,0,1-2.781,1.156,3.4,3.4,0,0,1-2.665-1.108,4.038,4.038,0,0,1-.993-2.8,4.131,4.131,0,0,1,1.023-2.89,3.548,3.548,0,0,1,2.759-1.125,3.471,3.471,0,0,1,2.687,1.109A3.986,3.986,0,0,1,219.883,78.843Zm-1.749.039a3.4,3.4,0,0,0-.452-1.792,1.67,1.67,0,0,0-1.517-.9,1.7,1.7,0,0,0-1.547.9,3.456,3.456,0,0,0-.453,1.823,3.389,3.389,0,0,0,.453,1.792,1.731,1.731,0,0,0,3.05-.015A3.413,3.413,0,0,0,218.133,78.882Zm7.237-2.289a2.938,2.938,0,0,0-.532-.047,1.593,1.593,0,0,0-1.376.673,2.533,2.533,0,0,0-.421,1.5V82.7h-1.688V77.5q0-1.2-.049-2.391h1.47l.062,1.453h.047a2.6,2.6,0,0,1,.844-1.2,2.041,2.041,0,0,1,1.22-.407,2.71,2.71,0,0,1,.422.031Zm7.547,1.954a3.958,3.958,0,0,1-.062.765h-5.063a2.2,2.2,0,0,0,.735,1.72,2.512,2.512,0,0,0,1.656.53,5.6,5.6,0,0,0,2.048-.358l.264,1.17a6.334,6.334,0,0,1-2.546.469,3.692,3.692,0,0,1-2.775-1.038,3.838,3.838,0,0,1-1.008-2.789,4.349,4.349,0,0,1,.939-2.858,3.234,3.234,0,0,1,2.656-1.218,2.831,2.831,0,0,1,2.486,1.218,4.1,4.1,0,0,1,.67,2.388Zm-1.609-.438a2.283,2.283,0,0,0-.328-1.3,1.474,1.474,0,0,0-1.344-.7,1.6,1.6,0,0,0-1.343.688,2.52,2.52,0,0,0-.5,1.312Z" transform="translate(-169.812 -72.016)"/></g><g transform="translate(34.572 5.185)"><path class="a" d="M176.02,31.709a10.779,10.779,0,0,1-1.213-.062V26.556a9.188,9.188,0,0,1,1.429-.108c1.935,0,2.827.952,2.827,2.5C179.062,30.742,178.009,31.709,176.02,31.709ZM176.3,27.1a3.386,3.386,0,0,0-.668.054v3.87a4.38,4.38,0,0,0,.56.023,1.834,1.834,0,0,0,1.99-2.073A1.689,1.689,0,0,0,176.3,27.1Zm5.536,4.647a1.776,1.776,0,0,1-1.8-1.92,1.818,1.818,0,0,1,1.859-1.974,1.762,1.762,0,0,1,1.8,1.913,1.829,1.829,0,0,1-1.859,1.981Zm.032-3.287c-.6,0-.983.56-.983,1.344,0,.768.392,1.329.975,1.329s.975-.6.975-1.344S182.454,28.461,181.871,28.461Zm8.047-.529-1.167,3.732h-.761l-.484-1.621a12.282,12.282,0,0,1-.3-1.205h-.016a8.077,8.077,0,0,1-.3,1.205l-.514,1.621h-.769l-1.1-3.732h.852l.423,1.774q.15.634.253,1.2h.016c.061-.314.161-.707.307-1.19l.53-1.781h.676l.507,1.743c.123.423.222.837.3,1.229h.022a10.738,10.738,0,0,1,.253-1.229l.454-1.743Zm4.3,3.732h-.829V29.521c0-.66-.253-.991-.753-.991a.861.861,0,0,0-.829.914v2.22h-.83V29c0-.33-.008-.684-.031-1.067h.73l.039.576h.023a1.341,1.341,0,0,1,1.183-.652c.784,0,1.3.6,1.3,1.574v2.235Zm2.288,0h-.83V26.219h.83Zm3.024.085a1.777,1.777,0,0,1-1.8-1.92,1.818,1.818,0,0,1,1.858-1.974,1.762,1.762,0,0,1,1.8,1.913,1.828,1.828,0,0,1-1.858,1.981Zm.031-3.287c-.6,0-.983.56-.983,1.344,0,.768.393,1.329.974,1.329s.975-.6.975-1.344S200.143,28.461,199.559,28.461Zm5.1,3.2-.06-.43h-.022a1.275,1.275,0,0,1-1.092.514,1.085,1.085,0,0,1-1.144-1.1c0-.921.8-1.4,2.181-1.4v-.069c0-.491-.26-.738-.775-.738a1.747,1.747,0,0,0-.975.277l-.169-.545a2.386,2.386,0,0,1,1.281-.323c.975,0,1.467.514,1.467,1.544v1.375a5.638,5.638,0,0,0,.054.891Zm-.114-1.859c-.921,0-1.384.223-1.384.753a.529.529,0,0,0,.569.583.794.794,0,0,0,.814-.76Zm4.836,1.859-.039-.6h-.023a1.251,1.251,0,0,1-1.2.684,1.7,1.7,0,0,1-1.566-1.9,1.771,1.771,0,0,1,1.635-1.989,1.122,1.122,0,0,1,1.053.507h.017V26.219h.83v4.438c0,.361.009.7.031,1.006h-.738Zm-.123-2.2a.9.9,0,0,0-.874-.968c-.615,0-.991.545-.991,1.313,0,.753.39,1.268.974,1.268a.931.931,0,0,0,.89-.991v-.622Zm6.095,2.281a1.776,1.776,0,0,1-1.8-1.92,1.818,1.818,0,0,1,1.858-1.974,1.762,1.762,0,0,1,1.8,1.913,1.828,1.828,0,0,1-1.859,1.981Zm.031-3.287c-.6,0-.982.56-.982,1.344,0,.768.392,1.329.974,1.329s.975-.6.975-1.344S215.967,28.461,215.382,28.461Zm6.289,3.2h-.83V29.521c0-.66-.253-.991-.753-.991a.861.861,0,0,0-.829.914v2.22h-.83V29c0-.33-.008-.684-.031-1.067h.73l.039.576h.023a1.34,1.34,0,0,1,1.183-.653c.784,0,1.3.6,1.3,1.574Zm5.581-3.11h-.913v1.812c0,.461.16.692.483.692a1.634,1.634,0,0,0,.368-.039l.023.63a1.838,1.838,0,0,1-.643.093c-.654,0-1.045-.361-1.045-1.306V28.554h-.545v-.622h.545v-.684L226.34,27v.929h.913v.623Zm4.391,3.11h-.829V29.536c0-.668-.252-1.006-.753-1.006a.813.813,0,0,0-.83.883v2.25H228.4V26.219h.829v2.242h.017a1.259,1.259,0,0,1,1.122-.607c.79,0,1.273.614,1.273,1.59v2.22Zm4.5-1.667h-2.489A1.071,1.071,0,0,0,234.83,31.1a2.8,2.8,0,0,0,1.006-.176l.129.576a3.117,3.117,0,0,1-1.252.23,1.733,1.733,0,0,1-1.858-1.881,1.823,1.823,0,0,1,1.765-2,1.567,1.567,0,0,1,1.552,1.774,1.6,1.6,0,0,1-.029.376Zm-.761-.591c0-.576-.29-.983-.821-.983a.984.984,0,0,0-.907.983Z" transform="translate(-174.806 -26.219)"/></g></svg>