<svg xmlns="http://www.w3.org/2000/svg" xmlns:xlink="http://www.w3.org/1999/xlink" width="96.737" height="31.644" viewBox="0 0 96.737 31.644"><defs><style>.a{fill:#707070;}.b{clip-path:url(#a);}.c{fill:url(#b);}.d{fill:url(#d);}.e{fill:url(#f);}.f{fill:url(#h);}.g{fill:#f9f9f9;}.h{fill:#f9f9fa;}</style><clipPath id="a"><path d="M476.936,415.99l-4.362-2.518-8.414-4.858c-.467-.27-.933-.106-.933.457v19.793c0,.423.333.6.739.371l8.608-4.97,4.362-2.518,4.193-2.421c.492-.284.445-.674.03-.9s-4.222-2.438-4.222-2.438Z" transform="translate(-463.228 -408.486)"/></clipPath><linearGradient id="b" x1="1.441" y1="1.519" x2="1.441" y2="1.436" gradientUnits="objectBoundingBox"><stop offset="0" stop-color="#257cb0"/><stop offset="0.286" stop-color="#4a93b5"/><stop offset="0.767" stop-color="#78bcbb"/><stop offset="1" stop-color="#89cfbd"/></linearGradient><linearGradient id="d" x1="1.103" y1="2.982" x2="1.187" y2="2.982" gradientUnits="objectBoundingBox"><stop offset="0" stop-color="#52c1ad"/><stop offset="1" stop-color="#dee89a"/></linearGradient><linearGradient id="f" x1="1.145" y1="1.94" x2="1.145" y2="1.857" gradientUnits="objectBoundingBox"><stop offset="0" stop-color="#ec413d"/><stop offset="0.167" stop-color="#da4452"/><stop offset="0.575" stop-color="#b0487a"/><stop offset="0.862" stop-color="#954a92"/><stop offset="1" stop-color="#8a4a9d"/></linearGradient><linearGradient id="h" x1="0.704" y1="4.18" x2="0.704" y2="4.097" gradientUnits="objectBoundingBox"><stop offset="0" stop-color="#f58879"/><stop offset="0.119" stop-color="#f69079"/><stop offset="0.713" stop-color="#fcb877"/><stop offset="1" stop-color="#fec874"/></linearGradient></defs><path class="a" d="M99.6,28.181a4.276,4.276,0,0,1-4.275,4.277H7.136A4.277,4.277,0,0,1,2.86,28.181V5.09A4.277,4.277,0,0,1,7.136.814H95.322A4.276,4.276,0,0,1,99.6,5.09V28.181h0Z" transform="translate(-2.86 -0.814)"/><g class="b" transform="translate(7.256 6.425)"><path class="c" d="M463.24,387.346v21.429l10.806-10.715Z" transform="translate(-463.24 -387.679)"/></g><g class="b" transform="translate(7.256 6.425)"><path class="d" d="M476.948,390.317l-4.362-2.518-9.346-5.4v.078l10.806,10.715Z" transform="translate(-463.24 -382.813)"/></g><g class="b" transform="translate(7.256 6.425)"><path class="e" d="M463.24,1077.882v.078l9.346-5.4,4.362-2.518-2.9-2.878Z" transform="translate(-463.24 -1056.786)"/></g><g class="b" transform="translate(7.256 6.425)"><path class="f" d="M1151.752,884.566l-2.9,2.878,2.9,2.878,4.985-2.878Z" transform="translate(-1138.044 -877.063)"/></g><path class="g" d="M1911.361,748a2.7,2.7,0,0,1-1.112-.224,2.1,2.1,0,0,1-.844-.691h-.068a8.4,8.4,0,0,1,.068,1.035v2.564h-.943v-9.03h.767l.13.853h.045a2.193,2.193,0,0,1,.848-.739,2.573,2.573,0,0,1,1.108-.228,2.3,2.3,0,0,1,1.914.847,4.513,4.513,0,0,1-.011,4.762,2.307,2.307,0,0,1-1.9.85Zm-.136-5.658a1.673,1.673,0,0,0-1.382.529,2.722,2.722,0,0,0-.438,1.683v.21a3.119,3.119,0,0,0,.438,1.88,1.665,1.665,0,0,0,1.4.565,1.461,1.461,0,0,0,1.266-.654,3.1,3.1,0,0,0,.458-1.8,2.987,2.987,0,0,0-.458-1.788A1.506,1.506,0,0,0,1911.225,742.347Zm4.909,5.544h-.944v-8.848h.944Zm5.427,0-.188-.887h-.045a2.615,2.615,0,0,1-.93.793,2.827,2.827,0,0,1-1.157.208,2.083,2.083,0,0,1-1.453-.478,1.741,1.741,0,0,1-.526-1.359q0-1.887,3.019-1.979l1.058-.034v-.387a1.579,1.579,0,0,0-.316-1.083,1.3,1.3,0,0,0-1.009-.35,4.112,4.112,0,0,0-1.763.478l-.29-.722a4.433,4.433,0,0,1,1.01-.392,4.373,4.373,0,0,1,1.1-.142,2.374,2.374,0,0,1,1.652.495,2.066,2.066,0,0,1,.537,1.587v4.253h-.7Zm-2.132-.665a1.917,1.917,0,0,0,1.385-.483,1.79,1.79,0,0,0,.5-1.354v-.563l-.944.039a3.433,3.433,0,0,0-1.623.35,1.054,1.054,0,0,0-.5.964.971.971,0,0,0,.31.779A1.286,1.286,0,0,0,1919.428,747.226Zm3.38-5.567h1.012l1.365,3.554a13.571,13.571,0,0,1,.557,1.757h.046q.074-.29.31-.993t1.544-4.318h1.013l-2.678,7.1a3.541,3.541,0,0,1-.93,1.493,1.977,1.977,0,0,1-1.3.44,3.811,3.811,0,0,1-.854-.1v-.756a3.3,3.3,0,0,0,.7.068,1.442,1.442,0,0,0,1.387-1.092l.347-.887Zm-28.932.579a2.123,2.123,0,0,1-.17,3.611.917.917,0,0,0-.365.639.715.715,0,0,0,.339.56l.469.364a2.269,2.269,0,0,1,1.094,1.826c0,1.225-1.186,2.463-3.428,2.463-1.89,0-2.8-.9-2.8-1.864a1.875,1.875,0,0,1,1-1.59,5.619,5.619,0,0,1,2.49-.6,1.364,1.364,0,0,1-.391-.885,1.177,1.177,0,0,1,.13-.509c-.144.013-.287.026-.418.026a2.061,2.061,0,0,1-2.163-2.046,2.344,2.344,0,0,1,.834-1.747,3.555,3.555,0,0,1,2.334-.717h2.684l-.834.469h-.808Zm-.926,5.788a2.023,2.023,0,0,0-.3-.014,5.215,5.215,0,0,0-1.369.21,1.464,1.464,0,0,0-1.121,1.342c0,.925.9,1.591,2.295,1.591,1.25,0,1.916-.6,1.916-1.408C1894.372,749.081,1893.942,748.73,1892.95,748.026Zm.378-2.477a1.318,1.318,0,0,0,.325-.952c0-.938-.56-2.4-1.642-2.4a1.218,1.218,0,0,0-.913.43,1.506,1.506,0,0,0-.287.965c0,.873.508,2.32,1.63,2.32A1.335,1.335,0,0,0,1893.329,745.549Zm-7.659,2.268a3.071,3.071,0,0,1-3.175-3.072,3.225,3.225,0,0,1,3.371-3.162,3.042,3.042,0,0,1,3.109,3.071A3.18,3.18,0,0,1,1885.67,747.817Zm1.627-1.054a2.355,2.355,0,0,0,.391-1.445c0-1.146-.547-3.332-2.161-3.332a1.812,1.812,0,0,0-1.171.443,1.968,1.968,0,0,0-.6,1.588c0,1.287.638,3.408,2.213,3.408A1.663,1.663,0,0,0,1887.3,746.763Zm-8.68,1.054a3.071,3.071,0,0,1-3.176-3.072,3.225,3.225,0,0,1,3.371-3.162,3.042,3.042,0,0,1,3.11,3.071A3.18,3.18,0,0,1,1878.616,747.817Zm1.627-1.054a2.357,2.357,0,0,0,.391-1.445c0-1.146-.547-3.332-2.161-3.332a1.812,1.812,0,0,0-1.171.443,1.968,1.968,0,0,0-.6,1.588c0,1.287.637,3.408,2.213,3.408A1.663,1.663,0,0,0,1880.243,746.763Zm-5.8.85-1.871.432a13.865,13.865,0,0,1-2.159.222,4.649,4.649,0,0,1-4.985-4.737,4.946,4.946,0,0,1,5.286-4.892,7.539,7.539,0,0,1,2,.275,5.107,5.107,0,0,1,1.727.811l-1.086,1.034-.458.1.327-.524a3.74,3.74,0,0,0-2.8-1.229,3.614,3.614,0,0,0-3.625,3.86,4.627,4.627,0,0,0,4.632,4.775,3.9,3.9,0,0,0,1.662-.327v-2.106l-1.975.1,1.046-.563h2.774l-.34.327a.306.306,0,0,0-.131.209c-.014.118-.026.5-.026.628v1.6Z" transform="translate(-1836.076 -727.009)"/><path class="g" d="M3759,729.044c-.432-.039-.522-.117-.522-.628V721.01c0-.028,0-.057.007-.084.053-.458.184-.536.589-.772H3757.2l-.981.471h1V728.7c0,.261-.052.3-.353.693h2.316l.484-.287c-.222-.027-.445-.04-.668-.066Zm5.324.12c-.142.078-.285.169-.428.234a3.027,3.027,0,0,1-1.262.247,2.778,2.778,0,0,1-1.729-.507,3.364,3.364,0,0,1-1.324-2.742,2.945,2.945,0,0,1,2.975-3,2.525,2.525,0,0,1,1.339.364,2.151,2.151,0,0,1,.908,1.286l-3.053,1.235-1,.078a2.886,2.886,0,0,0,2.677,2.611,3.357,3.357,0,0,0,1.585-.454Zm-1.221-3.873c.246-.091.376-.169.376-.351a1.289,1.289,0,0,0-1.287-1.117,1.6,1.6,0,0,0-1.494,1.806c0,.221.026.455.04.689Zm2.475-1.807v.857h-.1v-.857h-.284V723.4h.671v.089Zm1.169.857v-.865h0l-.264.865h-.082l-.266-.865h0v.865h-.094V723.4h.162l.241.765h0l.238-.765h.164v.946Z" transform="translate(-3697.064 -708.816)"/><path class="h" d="M1869.422,408h-.65a4.3,4.3,0,0,0-.185-.76h-.939a3.93,3.93,0,0,0-.191.76h-.612q0-.079.474-1.3a10.219,10.219,0,0,0,.474-1.345h.768a11.2,11.2,0,0,0,.43,1.326A11.625,11.625,0,0,1,1869.422,408Zm-.939-1.148a11.419,11.419,0,0,1-.347-1.134h-.032q0,.079-.36,1.134Zm3.558,1.148h-.5a4.961,4.961,0,0,0-.559-.88,4.839,4.839,0,0,1-.666-1.148h-.033a7.165,7.165,0,0,1,.051.8q0,.5.028,1.223h-.5q.03-.63.03-1.383t-.03-1.262h.6a3.819,3.819,0,0,0,.5.859,5.05,5.05,0,0,1,.614,1.083h.031a7.683,7.683,0,0,1-.049-.813q0-.55-.028-1.13h.508q-.029.5-.028,1.262T1872.042,408Zm2.945-1.414a1.5,1.5,0,0,1-.37,1.008,1.292,1.292,0,0,1-1.036.431q-.3,0-.829-.024.026-.614.026-1.383,0-.739-.026-1.262h.356q.087,0,.26-.006l.225-.006a1.37,1.37,0,0,1,1.064.366A1.264,1.264,0,0,1,1874.987,406.589Zm-.555.087a.979.979,0,0,0-.228-.657.863.863,0,0,0-.695-.267,2.122,2.122,0,0,0-.24.018q.02.407.02.849,0,.486.02.963a1.343,1.343,0,0,0,.264.026.767.767,0,0,0,.647-.271A1.046,1.046,0,0,0,1874.432,406.676ZM1877.7,408h-.6a3.993,3.993,0,0,0-.362-.888.474.474,0,0,0-.406-.169l-.225,0q0,.522.018,1.054h-.565q.026-.614.026-1.383,0-.739-.026-1.262h.351l.255-.006q.194-.006.359-.006.932,0,.933.638a.716.716,0,0,1-.532.705v.03a.635.635,0,0,1,.36.32A7.111,7.111,0,0,1,1877.7,408Zm-.762-1.869q0-.4-.52-.4a1.785,1.785,0,0,0-.337.028q.023.315.022.821c.074,0,.137,0,.189,0Q1876.94,406.583,1876.94,406.134Zm3.674.5a1.459,1.459,0,0,1-.382,1.034,1.24,1.24,0,0,1-.945.41,1.193,1.193,0,0,1-.9-.377,1.327,1.327,0,0,1-.362-.958,1.459,1.459,0,0,1,.382-1.034,1.239,1.239,0,0,1,.945-.41,1.2,1.2,0,0,1,.9.376A1.326,1.326,0,0,1,1880.614,406.632Zm-.561.059a1.048,1.048,0,0,0-.217-.689.669.669,0,0,0-.536-.264.62.62,0,0,0-.5.266,1.063,1.063,0,0,0-.207.673,1.047,1.047,0,0,0,.218.688.669.669,0,0,0,.536.265.619.619,0,0,0,.5-.267A1.062,1.062,0,0,0,1880.054,406.69Zm1.709,1.313h-.575q.026-.63.026-1.383t-.026-1.262h.575q-.026.512-.026,1.262Q1881.737,407.385,1881.763,408Zm2.945-1.414a1.5,1.5,0,0,1-.37,1.008,1.291,1.291,0,0,1-1.036.431q-.3,0-.829-.024.027-.614.027-1.383,0-.739-.027-1.262h.356q.087,0,.26-.006l.225-.006a1.369,1.369,0,0,1,1.064.366A1.264,1.264,0,0,1,1884.708,406.589Zm-.555.087a.979.979,0,0,0-.228-.657.863.863,0,0,0-.695-.267,2.122,2.122,0,0,0-.24.018q.02.407.02.849,0,.486.02.963a1.343,1.343,0,0,0,.264.026.767.767,0,0,0,.647-.271A1.046,1.046,0,0,0,1884.153,406.676Zm4.461,1.327h-.65a4.289,4.289,0,0,0-.185-.76h-.939a3.935,3.935,0,0,0-.191.76h-.611q0-.079.474-1.3a10.207,10.207,0,0,0,.474-1.345h.768a11.228,11.228,0,0,0,.43,1.326A11.667,11.667,0,0,1,1888.615,408Zm-.939-1.148a11.467,11.467,0,0,1-.348-1.134h-.032q0,.079-.359,1.134Zm3.308-.8a.792.792,0,0,1-.361.717,1.6,1.6,0,0,1-.885.232c-.064,0-.109,0-.136,0q0,.382.022,1.008h-.571q.026-.587.026-1.384,0-.731-.026-1.262h.353q.075,0,.288-.006c.142,0,.265-.006.37-.006a1.163,1.163,0,0,1,.652.175A.591.591,0,0,1,1890.984,406.05Zm-.524.112q0-.435-.577-.435a1.639,1.639,0,0,0-.3.03q.022.384.022.87c.034,0,.073,0,.118,0Q1890.46,406.632,1890.46,406.162Zm2.961-.112a.792.792,0,0,1-.36.717,1.605,1.605,0,0,1-.885.232c-.064,0-.109,0-.136,0q0,.382.022,1.008h-.571q.026-.587.026-1.384,0-.731-.026-1.262h.354q.075,0,.288-.006t.37-.006a1.163,1.163,0,0,1,.652.175A.591.591,0,0,1,1893.421,406.05Zm-.524.112q0-.435-.577-.435a1.637,1.637,0,0,0-.3.03q.022.384.022.87c.034,0,.073,0,.118,0Q1892.9,406.632,1892.9,406.162Zm4.508.469a1.458,1.458,0,0,1-.382,1.034,1.239,1.239,0,0,1-.945.41,1.193,1.193,0,0,1-.9-.377,1.328,1.328,0,0,1-.362-.958,1.459,1.459,0,0,1,.382-1.034,1.239,1.239,0,0,1,.945-.41,1.2,1.2,0,0,1,.9.376A1.327,1.327,0,0,1,1897.405,406.632Zm-.561.059a1.049,1.049,0,0,0-.217-.689.669.669,0,0,0-.536-.264.62.62,0,0,0-.5.266,1.062,1.062,0,0,0-.207.673,1.047,1.047,0,0,0,.219.688.669.669,0,0,0,.535.265.619.619,0,0,0,.5-.267A1.062,1.062,0,0,0,1896.844,406.69Zm3.315,1.313h-.5a4.943,4.943,0,0,0-.559-.88,4.844,4.844,0,0,1-.666-1.148h-.033a7.165,7.165,0,0,1,.051.8q0,.5.028,1.223h-.5q.03-.63.03-1.383t-.03-1.262h.6a3.825,3.825,0,0,0,.5.859,5.044,5.044,0,0,1,.614,1.083h.031a7.683,7.683,0,0,1-.049-.813q0-.55-.028-1.13h.508q-.029.5-.028,1.262T1900.159,408Z" transform="translate(-1837.468 -398.922)"/></svg>